#!OML:ASF H:\LiuWeirdWalks\Patient Classification 1\Patient 1\Session 1\male.ASF
:FULLY-SPECIFIED
:DEGREES
174
root 0.71496 17.6016 -17.2173 11.121 3.89826 9.62514
lowerback 8.34046 0.39755 -8.90355
upperback -0.59136 -0.380269 -0.276712
thorax -5.26999 0.0596083 4.76952
lowerneck -21.3993 -0.543044 4.62175
upperneck 17.4127 -0.906344 -5.87205
head 8.92311 -0.776098 -2.90415
rclavicle 4.96962e-015 -1.90833e-014
rhumerus -34.8601 -7.59154 -76.5862
rradius 26.6851
rwrist -7.52672
rhand -17.1062 -2.96625
rfingers 7.12502
rthumb 9.13288 -32.7485
lclavicle 4.96962e-015 -1.90833e-014
lhumerus -41.9043 11.6915 79.0274
lradius 20.6158
lwrist 2.38317
lhand -10.1766 -0.258081
lfingers 7.12502
lthumb 15.8136 29.1161
rfemur -31.8846 -12.6458 9.3846
rtibia 76.3521
rfoot -10.1452 -18.3493
rtoes -0.925374
lfemur -14.577 -1.25691 -30.8214
ltibia 29.6291
lfoot -17.4915 11.6496
ltoes -9.88107
175
root 0.738416 17.5835 -16.9888 11.0509 3.74957 9.8746
lowerback 8.36245 0.282628 -9.25036
upperback -0.582002 -0.573492 -0.345171
thorax -5.24309 -0.0283135 4.91662
lowerneck -21.0868 -0.5577 4.52878
upperneck 17.3133 -0.928477 -5.6894
head 8.83441 -0.769046 -2.82157
rclavicle 1.41137e-014 1.03368e-014
rhumerus -35.3575 -7.96464 -76.1661
rradius 26.4265
rwrist -7.50164
rhand -17.1253 -3.16749
rfingers 7.12502
rthumb 9.11439 -32.9506
lclavicle 1.41137e-014 1.03368e-014
lhumerus -41.5919 10.9726 79.402
lradius 20.8054
lwrist 2.2346
lhand -9.91913 -0.231635
lfingers 7.12502
lthumb 16.0615 29.1227
rfemur -34.166 -13.0093 9.6387
rtibia 75.8756
rfoot -11.8654 -19.1843
rtoes -1.76496
lfemur -13.2836 -1.30553 -31.205
ltibia 28.9889
lfoot -17.5848 12.1159
ltoes -10.32
176
root 0.76113 17.564 -16.7585 10.9424 3.53114 10.1787
lowerback 8.42765 0.20168 -9.66967
upperback -0.567776 -0.734383 -0.427802
thorax -5.23861 -0.0976463 5.08564
lowerneck -20.6541 -0.594357 4.40939
upperneck 17.1285 -0.971706 -5.50279
head 8.69465 -0.772492 -2.73284
rclavicle -1.98785e-015 6.36111e-015
rhumerus -35.8761 -8.33055 -75.715
rradius 26.151
rwrist -7.41234
rhand -17.1405 -3.3516
rfingers 7.12502
rthumb 9.09973 -33.1353
lclavicle -1.98785e-015 6.36111e-015
lhumerus -41.2677 10.3262 79.7146
lradius 21.007
lwrist 2.07297
lhand -9.69241 -0.213338
lfingers 7.12502
lthumb 16.2798 29.1232
rfemur -36.314 -13.2036 9.84044
rtibia 75.0152
rfoot -13.3222 -19.9302
rtoes -2.46633
lfemur -11.8757 -1.22323 -31.6726
ltibia 28.2177
lfoot -17.5911 12.563
ltoes -10.7496
177
root 0.78259 17.545 -16.5265 10.8109 3.28296 10.5269
lowerback 8.51865 0.139198 -10.1419
upperback -0.544892 -0.87996 -0.523977
thorax -5.24004 -0.158166 5.26821
lowerneck -20.2266 -0.630217 4.26034
upperneck 16.983 -1.01039 -5.28781
head 8.57032 -0.772972 -2.63035
rclavicle 5.1684e-015 3.33958e-014
rhumerus -36.393 -8.68842 -75.2502
rradius 25.8658
rwrist -7.28079
rhand -17.1531 -3.55229
rfingers 7.12502
rthumb 9.08762 -33.3365
lclavicle 5.1684e-015 3.33958e-014
lhumerus -40.9251 9.737 79.973
lradius 21.2435
lwrist 1.95505
lhand -9.4914 -0.113168
lfingers 7.12502
lthumb 16.4734 29.2074
rfemur -38.3173 -13.2644 9.99809
rtibia 73.7805
rfoot -14.5111 -20.5927
rtoes -3.00237
lfemur -10.3573 -1.02925 -32.2007
ltibia 27.2805
lfoot -17.4971 12.9824
ltoes -11.1508
178
root 0.802422 17.5272 -16.2922 10.666 3.0246 10.8849
lowerback 8.61893 0.0862097 -10.6405
upperback -0.513719 -1.01703 -0.617923
thorax -5.23723 -0.214272 5.46678
lowerneck -19.8443 -0.675444 4.10953
upperneck 16.883 -1.06094 -5.07977
head 8.46914 -0.780635 -2.53353
rclavicle -2.22639e-014 -7.95139e-015
rhumerus -36.8919 -9.03992 -74.7668
rradius 25.5487
rwrist -7.05277
rhand -17.1685 -3.716
rfingers 7.12502
rthumb 9.07279 -33.5009
lclavicle -2.22639e-014 -7.95139e-015
lhumerus -40.5598 9.22043 80.1792
lradius 21.5081
lwrist 1.92352
lhand -9.31707 0.0344396
lfingers 7.12502
lthumb 16.6412 29.341
rfemur -40.166 -13.2102 10.1449
rtibia 72.186
rfoot -15.4795 -21.1862
rtoes -3.50306
lfemur -8.73711 -0.745784 -32.7417
ltibia 26.1668
lfoot -17.3252 13.3763
ltoes -11.5085
179
root 0.820457 17.5101 -16.0556 10.5248 2.766 11.2379
lowerback 8.70446 0.0365484 -11.1462
upperback -0.483443 -1.14948 -0.711867
thorax -5.22591 -0.268424 5.66815
lowerneck -19.5546 -0.718983 4.00025
upperneck 16.8508 -1.11621 -4.90584
head 8.40659 -0.792495 -2.45864
rclavicle 1.64991e-014 1.43125e-014
rhumerus -37.3928 -9.38764 -74.2747
rradius 25.2382
rwrist -6.81756
rhand -17.1101 -3.87687
rfingers 7.12502
rthumb 9.12914 -33.6593
lclavicle 1.64991e-014 1.43125e-014
lhumerus -40.1904 8.75568 80.3266
lradius 21.7933
lwrist 1.98595
lhand -9.19547 0.172429
lfingers 7.12502
lthumb 16.7583 29.4692
rfemur -41.8666 -13.0665 10.2933
rtibia 70.2555
rfoot -16.2189 -21.7133
rtoes -3.95025
lfemur -7.03828 -0.411402 -33.2709
ltibia 24.8803
lfoot -17.0708 13.7489
ltoes -11.8242
180
root 0.836811 17.4929 -15.8177 10.4043 2.52689 11.5561
lowerback 8.77998 -0.0204963 -11.6248
upperback -0.465002 -1.2885 -0.792186
thorax -5.21867 -0.325763 5.86926
lowerneck -19.3776 -0.754374 3.89919
upperneck 16.908 -1.16256 -4.74206
head 8.39451 -0.801671 -2.39081
rclavicle 1.74931e-014 1.90833e-014
rhumerus -37.8928 -9.72989 -73.7638
rradius 24.9188
rwrist -6.5426
rhand -17.0084 -3.99412
rfingers 7.12502
rthumb 9.22722 -33.7722
lclavicle 1.74931e-014 1.90833e-014
lhumerus -39.8276 8.35295 80.4217
lradius 22.1162
lwrist 2.16503
lhand -9.10648 0.309432
lfingers 7.12502
lthumb 16.8439 29.5989
rfemur -43.4381 -12.866 10.4759
rtibia 68.0176
rfoot -16.7314 -22.1768
rtoes -4.32196
lfemur -5.29207 -0.0689001 -33.7478
ltibia 23.4381
lfoot -16.7362 14.0937
ltoes -12.1154
181
root 0.851619 17.4754 -15.5781 10.3149 2.32206 11.8286
lowerback 8.82797 -0.0895608 -12.0548
upperback -0.458613 -1.43541 -0.86105
thorax -5.20595 -0.388056 6.05554
lowerneck -19.3375 -0.769101 3.86903
upperneck 17.0497 -1.19078 -4.64106
head 8.43499 -0.805351 -2.35716
rclavicle -1.96797e-014 -1.19271e-014
rhumerus -38.3967 -10.0834 -73.2371
rradius 24.5882
rwrist -6.18792
rhand -16.8853 -4.02177
rfingers 7.12502
rthumb 9.346 -33.7946
lclavicle -1.96797e-014 -1.19271e-014
lhumerus -39.4676 7.98306 80.4727
lradius 22.4784
lwrist 2.47399
lhand -9.06079 0.460965
lfingers 7.12502
lthumb 16.8879 29.7467
rfemur -44.8794 -12.6439 10.7006
rtibia 65.5031
rfoot -16.9917 -22.5514
rtoes -4.62377
lfemur -3.51626 0.244725 -34.153
ltibia 21.8611
lfoot -16.3132 14.3978
ltoes -12.4849
182
root 0.865273 17.4575 -15.3365 10.2586 2.1562 12.0639
lowerback 8.84384 -0.176371 -12.4439
upperback -0.464279 -1.59737 -0.915458
thorax -5.18365 -0.4588 6.23523
lowerneck -19.3039 -0.771072 3.87724
upperneck 17.162 -1.20733 -4.57027
head 8.46679 -0.804345 -2.33816
rclavicle 1.2921e-014 3.18055e-015
rhumerus -38.9131 -10.4122 -72.7034
rradius 24.2672
rwrist -5.7799
rhand -16.7754 -4.00958
rfingers 7.12502
rthumb 9.45202 -33.7776
lclavicle 1.2921e-014 3.18055e-015
lhumerus -39.1163 7.64905 80.4879
lradius 22.8717
lwrist 2.90278
lhand -9.05871 0.595611
lfingers 7.12502
lthumb 16.8899 29.8811
rfemur -46.1864 -12.4302 10.9497
rtibia 62.7449
rfoot -16.9619 -22.7999
rtoes -4.90028
lfemur -1.70833 0.494537 -34.4945
ltibia 20.1588
lfoot -15.7776 14.6534
ltoes -12.9313
183
root 0.877062 17.4401 -15.0937 10.262 2.05234 12.2435
lowerback 8.82337 -0.289039 -12.7785
upperback -0.495654 -1.78318 -0.943656
thorax -5.1622 -0.541289 6.41429
lowerneck -19.3161 -0.749713 3.8927
upperneck 17.3039 -1.19313 -4.50823
head 8.51811 -0.789529 -2.32064
rclavicle 6.55989e-015 -2.38542e-015
rhumerus -39.4468 -10.7022 -72.1645
rradius 23.9733
rwrist -5.35904
rhand -16.6916 -4.01342
rfingers 7.12502
rthumb 9.53294 -33.7778
lclavicle 6.55989e-015 -2.38542e-015
lhumerus -38.7921 7.347 80.4811
lradius 23.3198
lwrist 3.43388
lhand -9.08531 0.742443
lfingers 7.12502
lthumb 16.8643 30.0302
rfemur -47.3821 -12.2335 11.2442
rtibia 59.7739
rfoot -16.5582 -22.8942
rtoes -5.13191
lfemur 0.10832 0.671086 -34.7383
ltibia 18.3159
lfoot -15.121 14.7977
ltoes -13.469
184
root 0.88728 17.4241 -14.8487 10.3115 2.012 12.3696
lowerback 8.76896 -0.426636 -13.0597
upperback -0.539099 -1.99063 -0.944871
thorax -5.12853 -0.635793 6.59362
lowerneck -19.2911 -0.72611 3.92462
upperneck 17.3826 -1.17477 -4.47471
head 8.54133 -0.774642 -2.31333
rclavicle 1.53064e-014 -3.18055e-014
rhumerus -39.9807 -10.954 -71.625
rradius 23.7155
rwrist -4.96345
rhand -16.6261 -4.07653
rfingers 7.12502
rthumb 9.59608 -33.838
lclavicle 1.53064e-014 -3.18055e-014
lhumerus -38.4636 7.08378 80.4579
lradius 23.785
lwrist 4.00844
lhand -9.14583 0.900974
lfingers 7.12502
lthumb 16.8061 30.1937
rfemur -48.4429 -12.0566 11.5629
rtibia 56.6274
rfoot -15.7311 -22.784
rtoes -5.39931
lfemur 1.96688 0.763761 -34.8854
ltibia 16.3042
lfoot -14.3335 14.808
ltoes -14.1186
185
root 0.895911 17.4101 -14.6017 10.4117 2.07441 12.4627
lowerback 8.69102 -0.598577 -13.2924
upperback -0.60024 -2.23503 -0.925914
thorax -5.0914 -0.748991 6.77055
lowerneck -19.2942 -0.698294 3.95191
upperneck 17.4611 -1.14951 -4.44486
head 8.56979 -0.757429 -2.306
rclavicle 1.56046e-014 1.35174e-014
rhumerus -40.5199 -11.1825 -71.0852
rradius 23.4939
rwrist -4.6077
rhand -16.5929 -4.24305
rfingers 7.12502
rthumb 9.6281 -34.003
lclavicle 1.56046e-014 1.35174e-014
lhumerus -38.1412 6.82336 80.4299
lradius 24.2629
lwrist 4.63434
lhand -9.26556 0.997057
lfingers 7.12502
lthumb 16.6908 30.2995
rfemur -49.3644 -11.9325 11.8717
rtibia 53.3524
rfoot -14.493 -22.4407
rtoes -5.78371
lfemur 3.88893 0.787058 -34.9397
ltibia 14.0788
lfoot -13.3914 14.6058
ltoes -14.8942
186
root 0.902083 17.3985 -14.3522 10.5613 2.24934 12.5064
lowerback 8.58919 -0.803673 -13.4724
upperback -0.677139 -2.51354 -0.875241
thorax -5.04858 -0.879713 6.95428
lowerneck -19.2827 -0.678056 3.97269
upperneck 17.5121 -1.13103 -4.42362
head 8.586 -0.74477 -2.30067
rclavicle -4.55217e-014 -1.82882e-014
rhumerus -41.0645 -11.4236 -70.5156
rradius 23.2864
rwrist -4.24762
rhand -16.5835 -4.4425
rfingers 7.12502
rthumb 9.63717 -34.2021
lclavicle -4.55217e-014 -1.82882e-014
lhumerus -37.817 6.56172 80.4106
lradius 24.7504
lwrist 5.30345
lhand -9.43215 1.05096
lfingers 7.12502
lthumb 16.5304 30.3668
rfemur -50.1433 -11.8292 12.1671
rtibia 50.008
rfoot -12.9892 -21.9016
rtoes -6.36398
lfemur 5.92475 0.761117 -34.8712
ltibia 11.5433
lfoot -12.264 14.1394
ltoes -15.7787
187
root 0.906252 17.3886 -14.0997 10.7408 2.53055 12.5123
lowerback 8.45811 -1.03527 -13.5999
upperback -0.751244 -2.81544 -0.803592
thorax -4.9796 -1.0252 7.13104
lowerneck -19.2882 -0.666926 3.98677
upperneck 17.5984 -1.12453 -4.3954
head 8.61679 -0.737404 -2.29421
rclavicle 8.64713e-015 -2.38542e-015
rhumerus -41.5907 -11.7547 -69.8862
rradius 23.0536
rwrist -3.81924
rhand -16.5496 -4.57179
rfingers 7.12502
rthumb 9.66989 -34.3298
lclavicle 8.64713e-015 -2.38542e-015
lhumerus -37.4881 6.27032 80.4058
lradius 25.2528
lwrist 5.97418
lhand -9.67128 1.03662
lfingers 7.12502
lthumb 16.3002 30.3715
rfemur -50.767 -11.7315 12.4132
rtibia 46.67
rfoot -11.3951 -21.2293
rtoes -7.19136
lfemur 8.20059 0.43756 -34.732
ltibia 8.48498
lfoot -10.7553 13.6196
ltoes -16.7571
188
root 0.908062 17.3797 -13.8435 10.9357 2.93037 12.47
lowerback 8.31272 -1.29478 -13.6634
upperback -0.828749 -3.14436 -0.705672
thorax -4.89924 -1.18628 7.30068
lowerneck -19.3223 -0.683588 3.95543
upperneck 17.6989 -1.15029 -4.33721
head 8.65646 -0.745179 -2.27472
rclavicle 1.3418e-014 7.95139e-015
rhumerus -42.128 -12.1794 -69.1782
rradius 22.7965
rwrist -3.32527
rhand -16.491 -4.59814
rfingers 7.12502
rthumb 9.72647 -34.3535
lclavicle 1.3418e-014 7.95139e-015
lhumerus -37.1729 5.95032 80.4148
lradius 25.769
lwrist 6.63995
lhand -9.98359 0.956315
lfingers 7.12502
lthumb 15.9994 30.3156
rfemur -51.22 -11.6027 12.5862
rtibia 43.4248
rfoot -10.0082 -20.5413
rtoes -8.22103
lfemur 11.2084 -0.000339264 -34.5122
ltibia 3.97356
lfoot -8.47893 12.7136
ltoes -17.8294
